<mxfile host="app.diagrams.net" agent="Mozilla/5.0 (Windows NT 10.0; Win64; x64) AppleWebKit/537.36 (KHTML, like Gecko) Chrome/140.0.0.0 Safari/537.36" version="28.2.3">
  <diagram name="Page-1" id="OwnXZPBfFviAmk849UdR">
    <mxGraphModel dx="4168" dy="2248" grid="1" gridSize="10" guides="1" tooltips="1" connect="1" arrows="1" fold="1" page="1" pageScale="10" pageWidth="850" pageHeight="1100" math="0" shadow="0">
      <root>
        <mxCell id="0" />
        <mxCell id="1" parent="0" />
        <mxCell id="KQfbLQ1ahkUomKawKFf_-20" value="ASSIGN_TO" style="shape=rhombus;perimeter=rhombusPerimeter;whiteSpace=wrap;html=1;align=center;" vertex="1" parent="1">
          <mxGeometry x="3836" y="4670" width="130" height="60" as="geometry" />
        </mxCell>
        <mxCell id="KQfbLQ1ahkUomKawKFf_-21" value="STUDENT" style="whiteSpace=wrap;html=1;align=center;" vertex="1" parent="1">
          <mxGeometry x="3828" y="4340" width="100" height="40" as="geometry" />
        </mxCell>
        <mxCell id="KQfbLQ1ahkUomKawKFf_-22" value="DEPARTMENT" style="whiteSpace=wrap;html=1;align=center;" vertex="1" parent="1">
          <mxGeometry x="4610" y="4683" width="100" height="40" as="geometry" />
        </mxCell>
        <mxCell id="KQfbLQ1ahkUomKawKFf_-27" value="COURSE" style="whiteSpace=wrap;html=1;align=center;" vertex="1" parent="1">
          <mxGeometry x="4610" y="4210" width="100" height="40" as="geometry" />
        </mxCell>
        <mxCell id="KQfbLQ1ahkUomKawKFf_-29" value="OFFER" style="shape=rhombus;perimeter=rhombusPerimeter;whiteSpace=wrap;html=1;align=center;" vertex="1" parent="1">
          <mxGeometry x="4600" y="4434" width="120" height="60" as="geometry" />
        </mxCell>
        <mxCell id="KQfbLQ1ahkUomKawKFf_-30" value="" style="endArrow=none;html=1;rounded=0;entryX=0.5;entryY=1;entryDx=0;entryDy=0;exitX=0.5;exitY=0;exitDx=0;exitDy=0;" edge="1" parent="1" source="KQfbLQ1ahkUomKawKFf_-22" target="KQfbLQ1ahkUomKawKFf_-29">
          <mxGeometry relative="1" as="geometry">
            <mxPoint x="4460" y="4560" as="sourcePoint" />
            <mxPoint x="4620" y="4560" as="targetPoint" />
          </mxGeometry>
        </mxCell>
        <mxCell id="KQfbLQ1ahkUomKawKFf_-31" value="" style="endArrow=none;html=1;rounded=0;entryX=0.5;entryY=1;entryDx=0;entryDy=0;exitX=0.5;exitY=0;exitDx=0;exitDy=0;" edge="1" parent="1" source="KQfbLQ1ahkUomKawKFf_-29" target="KQfbLQ1ahkUomKawKFf_-27">
          <mxGeometry relative="1" as="geometry">
            <mxPoint x="4500" y="4430" as="sourcePoint" />
            <mxPoint x="4660" y="4430" as="targetPoint" />
          </mxGeometry>
        </mxCell>
        <mxCell id="KQfbLQ1ahkUomKawKFf_-33" value="&lt;b&gt;&lt;font style=&quot;font-size: 15px;&quot;&gt;(1,1)&lt;/font&gt;&lt;/b&gt;" style="text;strokeColor=none;align=center;fillColor=none;html=1;verticalAlign=middle;whiteSpace=wrap;rounded=0;" vertex="1" parent="1">
          <mxGeometry x="4670" y="4440" width="60" height="40" as="geometry" />
        </mxCell>
        <mxCell id="KQfbLQ1ahkUomKawKFf_-34" value="&lt;font style=&quot;font-size: 17px;&quot;&gt;(0,1)&lt;/font&gt;" style="text;html=1;align=center;verticalAlign=middle;resizable=0;points=[];autosize=1;strokeColor=none;fillColor=none;" vertex="1" parent="1">
          <mxGeometry x="4570" y="4545" width="60" height="30" as="geometry" />
        </mxCell>
        <mxCell id="KQfbLQ1ahkUomKawKFf_-35" value="SUBJECT" style="whiteSpace=wrap;html=1;align=center;" vertex="1" parent="1">
          <mxGeometry x="4340" y="3820" width="100" height="40" as="geometry" />
        </mxCell>
        <mxCell id="KQfbLQ1ahkUomKawKFf_-36" value="STUDEIS" style="shape=rhombus;perimeter=rhombusPerimeter;whiteSpace=wrap;html=1;align=center;" vertex="1" parent="1">
          <mxGeometry x="4308" y="4320" width="120" height="60" as="geometry" />
        </mxCell>
        <mxCell id="KQfbLQ1ahkUomKawKFf_-37" value="HAS" style="shape=rhombus;perimeter=rhombusPerimeter;whiteSpace=wrap;html=1;align=center;" vertex="1" parent="1">
          <mxGeometry x="4900" y="4040" width="120" height="60" as="geometry" />
        </mxCell>
        <mxCell id="KQfbLQ1ahkUomKawKFf_-46" value="WRITE" style="shape=rhombus;perimeter=rhombusPerimeter;whiteSpace=wrap;html=1;align=center;" vertex="1" parent="1">
          <mxGeometry x="3820" y="4088" width="120" height="60" as="geometry" />
        </mxCell>
        <mxCell id="KQfbLQ1ahkUomKawKFf_-47" value="EXAM" style="whiteSpace=wrap;html=1;align=center;" vertex="1" parent="1">
          <mxGeometry x="3828" y="3818" width="100" height="40" as="geometry" />
        </mxCell>
        <mxCell id="KQfbLQ1ahkUomKawKFf_-55" value="HAS" style="shape=rhombus;perimeter=rhombusPerimeter;whiteSpace=wrap;html=1;align=center;" vertex="1" parent="1">
          <mxGeometry x="4105" y="3810" width="120" height="60" as="geometry" />
        </mxCell>
        <mxCell id="KQfbLQ1ahkUomKawKFf_-58" value="IS A" style="strokeWidth=2;html=1;shape=mxgraph.flowchart.extract_or_measurement;whiteSpace=wrap;" vertex="1" parent="1">
          <mxGeometry x="2970" y="3807" width="95" height="60" as="geometry" />
        </mxCell>
        <mxCell id="KQfbLQ1ahkUomKawKFf_-59" value="" style="endArrow=none;html=1;rounded=0;entryX=0;entryY=0.5;entryDx=0;entryDy=0;exitX=0.78;exitY=0.5;exitDx=0;exitDy=0;exitPerimeter=0;" edge="1" parent="1" source="KQfbLQ1ahkUomKawKFf_-58" target="KQfbLQ1ahkUomKawKFf_-47">
          <mxGeometry relative="1" as="geometry">
            <mxPoint x="3360" y="3930" as="sourcePoint" />
            <mxPoint x="3520" y="3930" as="targetPoint" />
          </mxGeometry>
        </mxCell>
        <mxCell id="KQfbLQ1ahkUomKawKFf_-60" value="ASSESMENT" style="whiteSpace=wrap;html=1;align=center;" vertex="1" parent="1">
          <mxGeometry x="2574" y="4078" width="120" height="40" as="geometry" />
        </mxCell>
        <mxCell id="KQfbLQ1ahkUomKawKFf_-61" value="END_THEORY" style="whiteSpace=wrap;html=1;align=center;" vertex="1" parent="1">
          <mxGeometry x="2730" y="4078" width="110" height="40" as="geometry" />
        </mxCell>
        <mxCell id="KQfbLQ1ahkUomKawKFf_-62" value="QUIZ" style="whiteSpace=wrap;html=1;align=center;" vertex="1" parent="1">
          <mxGeometry x="3000" y="4078" width="100" height="40" as="geometry" />
        </mxCell>
        <mxCell id="KQfbLQ1ahkUomKawKFf_-63" value="MID_THEORY" style="whiteSpace=wrap;html=1;align=center;" vertex="1" parent="1">
          <mxGeometry x="3124" y="4076" width="100" height="40" as="geometry" />
        </mxCell>
        <mxCell id="KQfbLQ1ahkUomKawKFf_-64" value="END_PRACTICAL" style="whiteSpace=wrap;html=1;align=center;" vertex="1" parent="1">
          <mxGeometry x="2860" y="4080" width="120" height="40" as="geometry" />
        </mxCell>
        <mxCell id="KQfbLQ1ahkUomKawKFf_-66" value="MID_PRACTICAL" style="whiteSpace=wrap;html=1;align=center;" vertex="1" parent="1">
          <mxGeometry x="3247" y="4075" width="120" height="40" as="geometry" />
        </mxCell>
        <mxCell id="KQfbLQ1ahkUomKawKFf_-73" value="" style="endArrow=none;html=1;rounded=0;entryX=0.5;entryY=1;entryDx=0;entryDy=0;entryPerimeter=0;exitX=0.5;exitY=0;exitDx=0;exitDy=0;" edge="1" parent="1" source="KQfbLQ1ahkUomKawKFf_-60" target="KQfbLQ1ahkUomKawKFf_-58">
          <mxGeometry relative="1" as="geometry">
            <mxPoint x="2640" y="3960" as="sourcePoint" />
            <mxPoint x="2800" y="3960" as="targetPoint" />
          </mxGeometry>
        </mxCell>
        <mxCell id="KQfbLQ1ahkUomKawKFf_-74" value="" style="endArrow=none;html=1;rounded=0;exitX=0.5;exitY=0;exitDx=0;exitDy=0;entryX=0.5;entryY=1;entryDx=0;entryDy=0;entryPerimeter=0;" edge="1" parent="1" source="KQfbLQ1ahkUomKawKFf_-62" target="KQfbLQ1ahkUomKawKFf_-58">
          <mxGeometry relative="1" as="geometry">
            <mxPoint x="2900" y="4178" as="sourcePoint" />
            <mxPoint x="3100" y="3930" as="targetPoint" />
          </mxGeometry>
        </mxCell>
        <mxCell id="KQfbLQ1ahkUomKawKFf_-75" value="" style="endArrow=none;html=1;rounded=0;entryX=0.5;entryY=1;entryDx=0;entryDy=0;entryPerimeter=0;exitX=0.5;exitY=0;exitDx=0;exitDy=0;" edge="1" parent="1" source="KQfbLQ1ahkUomKawKFf_-64" target="KQfbLQ1ahkUomKawKFf_-58">
          <mxGeometry relative="1" as="geometry">
            <mxPoint x="2800" y="4103" as="sourcePoint" />
            <mxPoint x="3178" y="3905" as="targetPoint" />
          </mxGeometry>
        </mxCell>
        <mxCell id="KQfbLQ1ahkUomKawKFf_-76" value="" style="endArrow=none;html=1;rounded=0;entryX=0.5;entryY=1;entryDx=0;entryDy=0;entryPerimeter=0;exitX=0.5;exitY=0;exitDx=0;exitDy=0;" edge="1" parent="1" source="KQfbLQ1ahkUomKawKFf_-61" target="KQfbLQ1ahkUomKawKFf_-58">
          <mxGeometry relative="1" as="geometry">
            <mxPoint x="2790" y="4061" as="sourcePoint" />
            <mxPoint x="3168" y="3863" as="targetPoint" />
          </mxGeometry>
        </mxCell>
        <mxCell id="KQfbLQ1ahkUomKawKFf_-77" value="" style="endArrow=none;html=1;rounded=0;exitX=0.5;exitY=0;exitDx=0;exitDy=0;entryX=0.5;entryY=1;entryDx=0;entryDy=0;entryPerimeter=0;" edge="1" parent="1" source="KQfbLQ1ahkUomKawKFf_-63" target="KQfbLQ1ahkUomKawKFf_-58">
          <mxGeometry relative="1" as="geometry">
            <mxPoint x="3102" y="4163" as="sourcePoint" />
            <mxPoint x="3070" y="3960" as="targetPoint" />
          </mxGeometry>
        </mxCell>
        <mxCell id="KQfbLQ1ahkUomKawKFf_-78" value="" style="endArrow=none;html=1;rounded=0;exitX=0.5;exitY=0;exitDx=0;exitDy=0;entryX=0.5;entryY=1;entryDx=0;entryDy=0;entryPerimeter=0;" edge="1" parent="1" source="KQfbLQ1ahkUomKawKFf_-66" target="KQfbLQ1ahkUomKawKFf_-58">
          <mxGeometry relative="1" as="geometry">
            <mxPoint x="3302" y="4133" as="sourcePoint" />
            <mxPoint x="3150" y="3930" as="targetPoint" />
          </mxGeometry>
        </mxCell>
        <mxCell id="KQfbLQ1ahkUomKawKFf_-82" value="PARTICIPATE" style="shape=rhombus;perimeter=rhombusPerimeter;whiteSpace=wrap;html=1;align=center;" vertex="1" parent="1">
          <mxGeometry x="2440" y="4430" width="120" height="60" as="geometry" />
        </mxCell>
        <mxCell id="KQfbLQ1ahkUomKawKFf_-83" value="SPORTS" style="whiteSpace=wrap;html=1;align=center;" vertex="1" parent="1">
          <mxGeometry x="2450" y="4560" width="100" height="40" as="geometry" />
        </mxCell>
        <mxCell id="KQfbLQ1ahkUomKawKFf_-85" value="SUBMIT" style="shape=rhombus;perimeter=rhombusPerimeter;whiteSpace=wrap;html=1;align=center;" vertex="1" parent="1">
          <mxGeometry x="2739" y="4430" width="120" height="60" as="geometry" />
        </mxCell>
        <mxCell id="KQfbLQ1ahkUomKawKFf_-86" value="MEDICAL" style="whiteSpace=wrap;html=1;align=center;" vertex="1" parent="1">
          <mxGeometry x="2748" y="4560" width="100" height="40" as="geometry" />
        </mxCell>
        <mxCell id="KQfbLQ1ahkUomKawKFf_-89" value="SESSION" style="shape=ext;margin=3;double=1;whiteSpace=wrap;html=1;align=center;" vertex="1" parent="1">
          <mxGeometry x="5218" y="5458" width="100" height="40" as="geometry" />
        </mxCell>
        <mxCell id="KQfbLQ1ahkUomKawKFf_-90" value="ATTEND" style="shape=rhombus;double=1;perimeter=rhombusPerimeter;whiteSpace=wrap;html=1;align=center;" vertex="1" parent="1">
          <mxGeometry x="4380" y="5450" width="120" height="60" as="geometry" />
        </mxCell>
        <mxCell id="KQfbLQ1ahkUomKawKFf_-98" value="Relationship" style="shape=rhombus;double=1;perimeter=rhombusPerimeter;whiteSpace=wrap;html=1;align=center;" vertex="1" parent="1">
          <mxGeometry x="5230" y="3688" width="120" height="60" as="geometry" />
        </mxCell>
        <mxCell id="KQfbLQ1ahkUomKawKFf_-99" value="" style="endArrow=none;html=1;rounded=0;entryX=1;entryY=0.5;entryDx=0;entryDy=0;exitX=1;exitY=0.5;exitDx=0;exitDy=0;" edge="1" parent="1" source="KQfbLQ1ahkUomKawKFf_-89" target="KQfbLQ1ahkUomKawKFf_-98">
          <mxGeometry relative="1" as="geometry">
            <mxPoint x="5340" y="5470" as="sourcePoint" />
            <mxPoint x="5278" y="3717" as="targetPoint" />
            <Array as="points">
              <mxPoint x="5720" y="5477" />
              <mxPoint x="5720" y="5130" />
              <mxPoint x="5720" y="4057" />
              <mxPoint x="5720" y="3720" />
            </Array>
          </mxGeometry>
        </mxCell>
        <mxCell id="KQfbLQ1ahkUomKawKFf_-100" value="" style="endArrow=none;html=1;rounded=0;entryX=1;entryY=0.25;entryDx=0;entryDy=0;exitX=0;exitY=0.5;exitDx=0;exitDy=0;" edge="1" parent="1" source="KQfbLQ1ahkUomKawKFf_-98" target="KQfbLQ1ahkUomKawKFf_-35">
          <mxGeometry relative="1" as="geometry">
            <mxPoint x="5540" y="4000" as="sourcePoint" />
            <mxPoint x="4770" y="4010" as="targetPoint" />
            <Array as="points">
              <mxPoint x="4880" y="3720" />
              <mxPoint x="4880" y="3830" />
            </Array>
          </mxGeometry>
        </mxCell>
        <mxCell id="KQfbLQ1ahkUomKawKFf_-102" value="ACADEMIC" style="whiteSpace=wrap;html=1;align=center;" vertex="1" parent="1">
          <mxGeometry x="5217" y="4470" width="100" height="40" as="geometry" />
        </mxCell>
        <mxCell id="KQfbLQ1ahkUomKawKFf_-103" value="d" style="strokeWidth=2;html=1;shape=mxgraph.flowchart.start_2;whiteSpace=wrap;" vertex="1" parent="1">
          <mxGeometry x="5248" y="4380" width="40" height="40" as="geometry" />
        </mxCell>
        <mxCell id="KQfbLQ1ahkUomKawKFf_-105" value="LECTURER" style="whiteSpace=wrap;html=1;align=center;" vertex="1" parent="1">
          <mxGeometry x="5081" y="4280" width="100" height="40" as="geometry" />
        </mxCell>
        <mxCell id="KQfbLQ1ahkUomKawKFf_-106" value="DEEN" style="whiteSpace=wrap;html=1;align=center;" vertex="1" parent="1">
          <mxGeometry x="5219" y="4280" width="100" height="40" as="geometry" />
        </mxCell>
        <mxCell id="KQfbLQ1ahkUomKawKFf_-107" value="DEMONSTRATORS" style="whiteSpace=wrap;html=1;align=center;" vertex="1" parent="1">
          <mxGeometry x="5361" y="4277" width="130" height="40" as="geometry" />
        </mxCell>
        <mxCell id="KQfbLQ1ahkUomKawKFf_-108" value="" style="endArrow=none;html=1;rounded=0;entryX=0.5;entryY=1;entryDx=0;entryDy=0;exitX=0.5;exitY=0;exitDx=0;exitDy=0;exitPerimeter=0;" edge="1" parent="1" source="KQfbLQ1ahkUomKawKFf_-103" target="KQfbLQ1ahkUomKawKFf_-106">
          <mxGeometry relative="1" as="geometry">
            <mxPoint x="5060" y="4420" as="sourcePoint" />
            <mxPoint x="5220" y="4420" as="targetPoint" />
          </mxGeometry>
        </mxCell>
        <mxCell id="KQfbLQ1ahkUomKawKFf_-109" value="" style="endArrow=none;html=1;rounded=0;entryX=0.5;entryY=1;entryDx=0;entryDy=0;exitX=0.145;exitY=0.145;exitDx=0;exitDy=0;exitPerimeter=0;" edge="1" parent="1" source="KQfbLQ1ahkUomKawKFf_-103" target="KQfbLQ1ahkUomKawKFf_-105">
          <mxGeometry relative="1" as="geometry">
            <mxPoint x="5150" y="4360" as="sourcePoint" />
            <mxPoint x="5310" y="4360" as="targetPoint" />
          </mxGeometry>
        </mxCell>
        <mxCell id="KQfbLQ1ahkUomKawKFf_-110" value="" style="endArrow=none;html=1;rounded=0;entryX=0.5;entryY=1;entryDx=0;entryDy=0;exitX=0.855;exitY=0.145;exitDx=0;exitDy=0;exitPerimeter=0;" edge="1" parent="1" source="KQfbLQ1ahkUomKawKFf_-103" target="KQfbLQ1ahkUomKawKFf_-107">
          <mxGeometry relative="1" as="geometry">
            <mxPoint x="5060" y="4420" as="sourcePoint" />
            <mxPoint x="5220" y="4420" as="targetPoint" />
          </mxGeometry>
        </mxCell>
        <mxCell id="KQfbLQ1ahkUomKawKFf_-111" value="" style="endArrow=none;html=1;rounded=0;entryX=0.5;entryY=1;entryDx=0;entryDy=0;entryPerimeter=0;exitX=0.5;exitY=0;exitDx=0;exitDy=0;" edge="1" parent="1" source="KQfbLQ1ahkUomKawKFf_-102" target="KQfbLQ1ahkUomKawKFf_-103">
          <mxGeometry relative="1" as="geometry">
            <mxPoint x="5060" y="4420" as="sourcePoint" />
            <mxPoint x="5220" y="4420" as="targetPoint" />
          </mxGeometry>
        </mxCell>
        <mxCell id="KQfbLQ1ahkUomKawKFf_-112" value="TEACH" style="shape=rhombus;perimeter=rhombusPerimeter;whiteSpace=wrap;html=1;align=center;" vertex="1" parent="1">
          <mxGeometry x="5042" y="3809" width="120" height="60" as="geometry" />
        </mxCell>
        <mxCell id="KQfbLQ1ahkUomKawKFf_-117" value="GUIDE" style="shape=rhombus;perimeter=rhombusPerimeter;whiteSpace=wrap;html=1;align=center;" vertex="1" parent="1">
          <mxGeometry x="4380" y="5290" width="120" height="60" as="geometry" />
        </mxCell>
        <mxCell id="KQfbLQ1ahkUomKawKFf_-118" value="NON_ACADEMIC" style="whiteSpace=wrap;html=1;align=center;" vertex="1" parent="1">
          <mxGeometry x="5190" y="4830" width="150" height="40" as="geometry" />
        </mxCell>
        <mxCell id="KQfbLQ1ahkUomKawKFf_-125" value="" style="shape=link;html=1;rounded=0;entryX=0;entryY=0.5;entryDx=0;entryDy=0;exitX=0.25;exitY=1;exitDx=0;exitDy=0;" edge="1" parent="1" source="KQfbLQ1ahkUomKawKFf_-21" target="KQfbLQ1ahkUomKawKFf_-117">
          <mxGeometry relative="1" as="geometry">
            <mxPoint x="4130" y="5060" as="sourcePoint" />
            <mxPoint x="4530" y="4970" as="targetPoint" />
            <Array as="points">
              <mxPoint x="3850" y="4480" />
              <mxPoint x="3560" y="4480" />
              <mxPoint x="3560" y="4820" />
              <mxPoint x="3560" y="5130" />
              <mxPoint x="3560" y="5320" />
              <mxPoint x="3840" y="5320" />
              <mxPoint x="4110" y="5320" />
            </Array>
          </mxGeometry>
        </mxCell>
        <mxCell id="KQfbLQ1ahkUomKawKFf_-126" value="1" style="resizable=0;html=1;whiteSpace=wrap;align=right;verticalAlign=bottom;" connectable="0" vertex="1" parent="KQfbLQ1ahkUomKawKFf_-125">
          <mxGeometry x="1" relative="1" as="geometry" />
        </mxCell>
        <mxCell id="KQfbLQ1ahkUomKawKFf_-129" value="WORKS_ON" style="shape=rhombus;perimeter=rhombusPerimeter;whiteSpace=wrap;html=1;align=center;" vertex="1" parent="1">
          <mxGeometry x="5207" y="4673" width="120" height="60" as="geometry" />
        </mxCell>
        <mxCell id="KQfbLQ1ahkUomKawKFf_-130" value="" style="endArrow=none;html=1;rounded=0;entryX=0;entryY=0.5;entryDx=0;entryDy=0;exitX=1;exitY=0.5;exitDx=0;exitDy=0;" edge="1" parent="1" source="KQfbLQ1ahkUomKawKFf_-22" target="KQfbLQ1ahkUomKawKFf_-129">
          <mxGeometry relative="1" as="geometry">
            <mxPoint x="4790" y="5080" as="sourcePoint" />
            <mxPoint x="4950" y="5080" as="targetPoint" />
            <Array as="points" />
          </mxGeometry>
        </mxCell>
        <mxCell id="KQfbLQ1ahkUomKawKFf_-131" value="1" style="resizable=0;html=1;whiteSpace=wrap;align=right;verticalAlign=bottom;" connectable="0" vertex="1" parent="KQfbLQ1ahkUomKawKFf_-130">
          <mxGeometry x="1" relative="1" as="geometry" />
        </mxCell>
        <mxCell id="KQfbLQ1ahkUomKawKFf_-134" value="" style="endArrow=none;html=1;rounded=0;entryX=0.5;entryY=1;entryDx=0;entryDy=0;exitX=0.5;exitY=0;exitDx=0;exitDy=0;" edge="1" parent="1" source="KQfbLQ1ahkUomKawKFf_-118" target="KQfbLQ1ahkUomKawKFf_-129">
          <mxGeometry relative="1" as="geometry">
            <mxPoint x="4640" y="5030" as="sourcePoint" />
            <mxPoint x="4800" y="5030" as="targetPoint" />
          </mxGeometry>
        </mxCell>
        <mxCell id="KQfbLQ1ahkUomKawKFf_-135" value="N" style="resizable=0;html=1;whiteSpace=wrap;align=right;verticalAlign=bottom;" connectable="0" vertex="1" parent="KQfbLQ1ahkUomKawKFf_-134">
          <mxGeometry x="1" relative="1" as="geometry" />
        </mxCell>
        <mxCell id="KQfbLQ1ahkUomKawKFf_-136" value="d" style="strokeWidth=2;html=1;shape=mxgraph.flowchart.start_2;whiteSpace=wrap;" vertex="1" parent="1">
          <mxGeometry x="5243" y="4930" width="40" height="40" as="geometry" />
        </mxCell>
        <mxCell id="KQfbLQ1ahkUomKawKFf_-140" value="ADMINISTRATOR" style="whiteSpace=wrap;html=1;align=center;" vertex="1" parent="1">
          <mxGeometry x="5431" y="5040" width="100" height="40" as="geometry" />
        </mxCell>
        <mxCell id="KQfbLQ1ahkUomKawKFf_-141" value="CLEANER" style="whiteSpace=wrap;html=1;align=center;" vertex="1" parent="1">
          <mxGeometry x="5302" y="5040" width="100" height="40" as="geometry" />
        </mxCell>
        <mxCell id="KQfbLQ1ahkUomKawKFf_-142" value="SECURITY" style="whiteSpace=wrap;html=1;align=center;" vertex="1" parent="1">
          <mxGeometry x="5166" y="5040" width="100" height="40" as="geometry" />
        </mxCell>
        <mxCell id="KQfbLQ1ahkUomKawKFf_-144" value="TECH_OFFICER" style="whiteSpace=wrap;html=1;align=center;" vertex="1" parent="1">
          <mxGeometry x="5032" y="5040" width="100" height="40" as="geometry" />
        </mxCell>
        <mxCell id="KQfbLQ1ahkUomKawKFf_-146" value="" style="endArrow=none;html=1;rounded=0;entryX=0.145;entryY=0.855;entryDx=0;entryDy=0;entryPerimeter=0;exitX=0.5;exitY=0;exitDx=0;exitDy=0;" edge="1" parent="1" source="KQfbLQ1ahkUomKawKFf_-144" target="KQfbLQ1ahkUomKawKFf_-136">
          <mxGeometry relative="1" as="geometry">
            <mxPoint x="4940" y="4950" as="sourcePoint" />
            <mxPoint x="5100" y="4950" as="targetPoint" />
          </mxGeometry>
        </mxCell>
        <mxCell id="KQfbLQ1ahkUomKawKFf_-147" value="" style="endArrow=none;html=1;rounded=0;entryX=0.5;entryY=1;entryDx=0;entryDy=0;exitX=0.5;exitY=0;exitDx=0;exitDy=0;exitPerimeter=0;" edge="1" parent="1" source="KQfbLQ1ahkUomKawKFf_-136" target="KQfbLQ1ahkUomKawKFf_-118">
          <mxGeometry relative="1" as="geometry">
            <mxPoint x="4940" y="4950" as="sourcePoint" />
            <mxPoint x="5100" y="4950" as="targetPoint" />
          </mxGeometry>
        </mxCell>
        <mxCell id="KQfbLQ1ahkUomKawKFf_-148" value="" style="endArrow=none;html=1;rounded=0;entryX=0.855;entryY=0.855;entryDx=0;entryDy=0;entryPerimeter=0;exitX=0.5;exitY=0;exitDx=0;exitDy=0;" edge="1" parent="1" source="KQfbLQ1ahkUomKawKFf_-140" target="KQfbLQ1ahkUomKawKFf_-136">
          <mxGeometry relative="1" as="geometry">
            <mxPoint x="4940" y="4950" as="sourcePoint" />
            <mxPoint x="5100" y="4950" as="targetPoint" />
          </mxGeometry>
        </mxCell>
        <mxCell id="KQfbLQ1ahkUomKawKFf_-149" value="" style="endArrow=none;html=1;rounded=0;entryX=0.5;entryY=1;entryDx=0;entryDy=0;entryPerimeter=0;exitX=0.5;exitY=0;exitDx=0;exitDy=0;" edge="1" parent="1" source="KQfbLQ1ahkUomKawKFf_-141" target="KQfbLQ1ahkUomKawKFf_-136">
          <mxGeometry relative="1" as="geometry">
            <mxPoint x="4940" y="4950" as="sourcePoint" />
            <mxPoint x="5100" y="4950" as="targetPoint" />
          </mxGeometry>
        </mxCell>
        <mxCell id="KQfbLQ1ahkUomKawKFf_-150" value="" style="endArrow=none;html=1;rounded=0;entryX=0.5;entryY=1;entryDx=0;entryDy=0;entryPerimeter=0;exitX=0.5;exitY=0;exitDx=0;exitDy=0;" edge="1" parent="1" source="KQfbLQ1ahkUomKawKFf_-142" target="KQfbLQ1ahkUomKawKFf_-136">
          <mxGeometry relative="1" as="geometry">
            <mxPoint x="4940" y="4950" as="sourcePoint" />
            <mxPoint x="5100" y="4950" as="targetPoint" />
          </mxGeometry>
        </mxCell>
        <mxCell id="KQfbLQ1ahkUomKawKFf_-151" value="" style="endArrow=none;html=1;rounded=0;exitX=0.5;exitY=1;exitDx=0;exitDy=0;entryX=0.5;entryY=0;entryDx=0;entryDy=0;" edge="1" parent="1" source="KQfbLQ1ahkUomKawKFf_-102" target="KQfbLQ1ahkUomKawKFf_-129">
          <mxGeometry relative="1" as="geometry">
            <mxPoint x="4940" y="4790" as="sourcePoint" />
            <mxPoint x="5100" y="4790" as="targetPoint" />
          </mxGeometry>
        </mxCell>
        <mxCell id="KQfbLQ1ahkUomKawKFf_-152" value="N" style="resizable=0;html=1;whiteSpace=wrap;align=right;verticalAlign=bottom;" connectable="0" vertex="1" parent="KQfbLQ1ahkUomKawKFf_-151">
          <mxGeometry x="1" relative="1" as="geometry" />
        </mxCell>
        <mxCell id="KQfbLQ1ahkUomKawKFf_-155" value="MANAGE" style="shape=rhombus;perimeter=rhombusPerimeter;whiteSpace=wrap;html=1;align=center;" vertex="1" parent="1">
          <mxGeometry x="4780" y="4440" width="120" height="60" as="geometry" />
        </mxCell>
        <mxCell id="KQfbLQ1ahkUomKawKFf_-156" value="" style="shape=link;html=1;rounded=0;entryX=0.5;entryY=1;entryDx=0;entryDy=0;exitX=0.75;exitY=0;exitDx=0;exitDy=0;" edge="1" parent="1" target="KQfbLQ1ahkUomKawKFf_-155">
          <mxGeometry relative="1" as="geometry">
            <mxPoint x="4684" y="4683" as="sourcePoint" />
            <mxPoint x="4839" y="4500" as="targetPoint" />
            <Array as="points">
              <mxPoint x="4684" y="4560" />
              <mxPoint x="4839" y="4560" />
            </Array>
          </mxGeometry>
        </mxCell>
        <mxCell id="KQfbLQ1ahkUomKawKFf_-157" value="N" style="resizable=0;html=1;whiteSpace=wrap;align=right;verticalAlign=bottom;" connectable="0" vertex="1" parent="KQfbLQ1ahkUomKawKFf_-156">
          <mxGeometry x="1" relative="1" as="geometry" />
        </mxCell>
        <mxCell id="KQfbLQ1ahkUomKawKFf_-162" value="" style="endArrow=none;html=1;rounded=0;entryX=0.5;entryY=0;entryDx=0;entryDy=0;exitX=0;exitY=0.5;exitDx=0;exitDy=0;" edge="1" parent="1" source="KQfbLQ1ahkUomKawKFf_-105" target="KQfbLQ1ahkUomKawKFf_-155">
          <mxGeometry relative="1" as="geometry">
            <mxPoint x="5010" y="4470" as="sourcePoint" />
            <mxPoint x="5170" y="4470" as="targetPoint" />
            <Array as="points">
              <mxPoint x="4840" y="4300" />
            </Array>
          </mxGeometry>
        </mxCell>
        <mxCell id="KQfbLQ1ahkUomKawKFf_-163" value="1" style="resizable=0;html=1;whiteSpace=wrap;align=right;verticalAlign=bottom;" connectable="0" vertex="1" parent="KQfbLQ1ahkUomKawKFf_-162">
          <mxGeometry x="1" relative="1" as="geometry" />
        </mxCell>
        <mxCell id="KQfbLQ1ahkUomKawKFf_-164" value="ISSUE" style="shape=rhombus;perimeter=rhombusPerimeter;whiteSpace=wrap;html=1;align=center;" vertex="1" parent="1">
          <mxGeometry x="4600" y="4940" width="120" height="80" as="geometry" />
        </mxCell>
        <mxCell id="KQfbLQ1ahkUomKawKFf_-165" value="RESULT" style="whiteSpace=wrap;html=1;align=center;" vertex="1" parent="1">
          <mxGeometry x="4810" y="4960" width="100" height="40" as="geometry" />
        </mxCell>
        <mxCell id="KQfbLQ1ahkUomKawKFf_-166" value="ELIGIBILITY" style="whiteSpace=wrap;html=1;align=center;" vertex="1" parent="1">
          <mxGeometry x="4400" y="4960" width="100" height="40" as="geometry" />
        </mxCell>
        <mxCell id="KQfbLQ1ahkUomKawKFf_-167" value="" style="endArrow=none;html=1;rounded=0;exitX=0.5;exitY=1;exitDx=0;exitDy=0;entryX=0.5;entryY=0;entryDx=0;entryDy=0;" edge="1" parent="1" source="KQfbLQ1ahkUomKawKFf_-22" target="KQfbLQ1ahkUomKawKFf_-164">
          <mxGeometry relative="1" as="geometry">
            <mxPoint x="4410" y="4760" as="sourcePoint" />
            <mxPoint x="4570" y="4760" as="targetPoint" />
          </mxGeometry>
        </mxCell>
        <mxCell id="KQfbLQ1ahkUomKawKFf_-168" value="1" style="resizable=0;html=1;whiteSpace=wrap;align=right;verticalAlign=bottom;" connectable="0" vertex="1" parent="KQfbLQ1ahkUomKawKFf_-167">
          <mxGeometry x="1" relative="1" as="geometry" />
        </mxCell>
        <mxCell id="KQfbLQ1ahkUomKawKFf_-169" value="" style="endArrow=none;html=1;rounded=0;exitX=1;exitY=0.5;exitDx=0;exitDy=0;entryX=0;entryY=0.5;entryDx=0;entryDy=0;" edge="1" parent="1" source="KQfbLQ1ahkUomKawKFf_-166" target="KQfbLQ1ahkUomKawKFf_-164">
          <mxGeometry relative="1" as="geometry">
            <mxPoint x="4550" y="4910" as="sourcePoint" />
            <mxPoint x="4710" y="4910" as="targetPoint" />
          </mxGeometry>
        </mxCell>
        <mxCell id="KQfbLQ1ahkUomKawKFf_-170" value="N" style="resizable=0;html=1;whiteSpace=wrap;align=right;verticalAlign=bottom;" connectable="0" vertex="1" parent="KQfbLQ1ahkUomKawKFf_-169">
          <mxGeometry x="1" relative="1" as="geometry" />
        </mxCell>
        <mxCell id="KQfbLQ1ahkUomKawKFf_-171" value="" style="endArrow=none;html=1;rounded=0;exitX=0;exitY=0.5;exitDx=0;exitDy=0;entryX=1;entryY=0.5;entryDx=0;entryDy=0;" edge="1" parent="1" source="KQfbLQ1ahkUomKawKFf_-165" target="KQfbLQ1ahkUomKawKFf_-164">
          <mxGeometry relative="1" as="geometry">
            <mxPoint x="4550" y="4910" as="sourcePoint" />
            <mxPoint x="4710" y="4910" as="targetPoint" />
          </mxGeometry>
        </mxCell>
        <mxCell id="KQfbLQ1ahkUomKawKFf_-172" value="N" style="resizable=0;html=1;whiteSpace=wrap;align=right;verticalAlign=bottom;" connectable="0" vertex="1" parent="KQfbLQ1ahkUomKawKFf_-171">
          <mxGeometry x="1" relative="1" as="geometry" />
        </mxCell>
        <mxCell id="KQfbLQ1ahkUomKawKFf_-174" value="DEPEND" style="shape=rhombus;double=1;perimeter=rhombusPerimeter;whiteSpace=wrap;html=1;align=center;" vertex="1" parent="1">
          <mxGeometry x="3680" y="4669" width="120" height="60" as="geometry" />
        </mxCell>
        <mxCell id="KQfbLQ1ahkUomKawKFf_-177" value="" style="endArrow=none;html=1;rounded=0;entryX=0.5;entryY=1;entryDx=0;entryDy=0;exitX=0.5;exitY=0;exitDx=0;exitDy=0;" edge="1" parent="1" source="KQfbLQ1ahkUomKawKFf_-186" target="KQfbLQ1ahkUomKawKFf_-174">
          <mxGeometry relative="1" as="geometry">
            <mxPoint x="3740" y="4790" as="sourcePoint" />
            <mxPoint x="3610" y="4760" as="targetPoint" />
          </mxGeometry>
        </mxCell>
        <mxCell id="KQfbLQ1ahkUomKawKFf_-178" value="N" style="resizable=0;html=1;whiteSpace=wrap;align=right;verticalAlign=bottom;" connectable="0" vertex="1" parent="KQfbLQ1ahkUomKawKFf_-177">
          <mxGeometry x="1" relative="1" as="geometry" />
        </mxCell>
        <mxCell id="KQfbLQ1ahkUomKawKFf_-179" value="" style="endArrow=none;html=1;rounded=0;exitX=0.5;exitY=1;exitDx=0;exitDy=0;entryX=0.5;entryY=0;entryDx=0;entryDy=0;" edge="1" parent="1" source="KQfbLQ1ahkUomKawKFf_-21" target="KQfbLQ1ahkUomKawKFf_-174">
          <mxGeometry relative="1" as="geometry">
            <mxPoint x="4110" y="4750" as="sourcePoint" />
            <mxPoint x="4270" y="4750" as="targetPoint" />
            <Array as="points">
              <mxPoint x="3878" y="4600" />
              <mxPoint x="3740" y="4600" />
            </Array>
          </mxGeometry>
        </mxCell>
        <mxCell id="KQfbLQ1ahkUomKawKFf_-180" value="N" style="resizable=0;html=1;whiteSpace=wrap;align=right;verticalAlign=bottom;" connectable="0" vertex="1" parent="KQfbLQ1ahkUomKawKFf_-179">
          <mxGeometry x="1" relative="1" as="geometry" />
        </mxCell>
        <mxCell id="KQfbLQ1ahkUomKawKFf_-185" value="Relationship" style="shape=rhombus;double=1;perimeter=rhombusPerimeter;whiteSpace=wrap;html=1;align=center;" vertex="1" parent="1">
          <mxGeometry x="5359" y="4669" width="120" height="60" as="geometry" />
        </mxCell>
        <mxCell id="KQfbLQ1ahkUomKawKFf_-186" value="ST_GAURIAN" style="shape=ext;margin=3;double=1;whiteSpace=wrap;html=1;align=center;" vertex="1" parent="1">
          <mxGeometry x="3690" y="4800" width="100" height="40" as="geometry" />
        </mxCell>
        <mxCell id="KQfbLQ1ahkUomKawKFf_-188" value="RELATIVE" style="shape=ext;margin=3;double=1;whiteSpace=wrap;html=1;align=center;" vertex="1" parent="1">
          <mxGeometry x="5540" y="4678" width="100" height="40" as="geometry" />
        </mxCell>
        <mxCell id="KQfbLQ1ahkUomKawKFf_-191" value="" style="endArrow=none;html=1;rounded=0;entryX=0.5;entryY=0;entryDx=0;entryDy=0;exitX=1;exitY=0.5;exitDx=0;exitDy=0;" edge="1" parent="1" source="KQfbLQ1ahkUomKawKFf_-102" target="KQfbLQ1ahkUomKawKFf_-185">
          <mxGeometry relative="1" as="geometry">
            <mxPoint x="5340" y="4540" as="sourcePoint" />
            <mxPoint x="5500" y="4540" as="targetPoint" />
            <Array as="points">
              <mxPoint x="5420" y="4490" />
            </Array>
          </mxGeometry>
        </mxCell>
        <mxCell id="KQfbLQ1ahkUomKawKFf_-192" value="N" style="resizable=0;html=1;whiteSpace=wrap;align=right;verticalAlign=bottom;" connectable="0" vertex="1" parent="KQfbLQ1ahkUomKawKFf_-191">
          <mxGeometry x="1" relative="1" as="geometry" />
        </mxCell>
        <mxCell id="KQfbLQ1ahkUomKawKFf_-193" value="" style="endArrow=none;html=1;rounded=0;exitX=1;exitY=0.5;exitDx=0;exitDy=0;entryX=0.5;entryY=1;entryDx=0;entryDy=0;" edge="1" parent="1" source="KQfbLQ1ahkUomKawKFf_-118" target="KQfbLQ1ahkUomKawKFf_-185">
          <mxGeometry relative="1" as="geometry">
            <mxPoint x="5330" y="4590" as="sourcePoint" />
            <mxPoint x="5490" y="4590" as="targetPoint" />
            <Array as="points">
              <mxPoint x="5420" y="4850" />
            </Array>
          </mxGeometry>
        </mxCell>
        <mxCell id="KQfbLQ1ahkUomKawKFf_-194" value="N" style="resizable=0;html=1;whiteSpace=wrap;align=right;verticalAlign=bottom;" connectable="0" vertex="1" parent="KQfbLQ1ahkUomKawKFf_-193">
          <mxGeometry x="1" relative="1" as="geometry" />
        </mxCell>
        <mxCell id="KQfbLQ1ahkUomKawKFf_-195" value="" style="endArrow=none;html=1;rounded=0;entryX=1;entryY=0.5;entryDx=0;entryDy=0;exitX=0;exitY=0.5;exitDx=0;exitDy=0;" edge="1" parent="1" source="KQfbLQ1ahkUomKawKFf_-188" target="KQfbLQ1ahkUomKawKFf_-185">
          <mxGeometry relative="1" as="geometry">
            <mxPoint x="5550" y="4710" as="sourcePoint" />
            <mxPoint x="5580" y="4690" as="targetPoint" />
          </mxGeometry>
        </mxCell>
        <mxCell id="KQfbLQ1ahkUomKawKFf_-196" value="N" style="resizable=0;html=1;whiteSpace=wrap;align=right;verticalAlign=bottom;" connectable="0" vertex="1" parent="KQfbLQ1ahkUomKawKFf_-195">
          <mxGeometry x="1" relative="1" as="geometry" />
        </mxCell>
        <mxCell id="KQfbLQ1ahkUomKawKFf_-197" value="" style="endArrow=none;html=1;rounded=0;entryX=0.5;entryY=0;entryDx=0;entryDy=0;exitX=0.5;exitY=1;exitDx=0;exitDy=0;" edge="1" parent="1" source="KQfbLQ1ahkUomKawKFf_-47" target="KQfbLQ1ahkUomKawKFf_-46">
          <mxGeometry relative="1" as="geometry">
            <mxPoint x="3440" y="4040" as="sourcePoint" />
            <mxPoint x="3600" y="4040" as="targetPoint" />
          </mxGeometry>
        </mxCell>
        <mxCell id="KQfbLQ1ahkUomKawKFf_-198" value="N" style="resizable=0;html=1;whiteSpace=wrap;align=right;verticalAlign=bottom;" connectable="0" vertex="1" parent="KQfbLQ1ahkUomKawKFf_-197">
          <mxGeometry x="1" relative="1" as="geometry" />
        </mxCell>
        <mxCell id="KQfbLQ1ahkUomKawKFf_-199" value="" style="endArrow=none;html=1;rounded=0;exitX=0.5;exitY=0;exitDx=0;exitDy=0;entryX=0.5;entryY=1;entryDx=0;entryDy=0;" edge="1" parent="1" source="KQfbLQ1ahkUomKawKFf_-21" target="KQfbLQ1ahkUomKawKFf_-46">
          <mxGeometry relative="1" as="geometry">
            <mxPoint x="3620" y="4240" as="sourcePoint" />
            <mxPoint x="3680" y="4170" as="targetPoint" />
          </mxGeometry>
        </mxCell>
        <mxCell id="KQfbLQ1ahkUomKawKFf_-200" value="N" style="resizable=0;html=1;whiteSpace=wrap;align=right;verticalAlign=bottom;" connectable="0" vertex="1" parent="KQfbLQ1ahkUomKawKFf_-199">
          <mxGeometry x="1" relative="1" as="geometry" />
        </mxCell>
        <mxCell id="KQfbLQ1ahkUomKawKFf_-201" value="" style="endArrow=none;html=1;rounded=0;entryX=0;entryY=0.5;entryDx=0;entryDy=0;exitX=1;exitY=0.25;exitDx=0;exitDy=0;" edge="1" parent="1" source="KQfbLQ1ahkUomKawKFf_-21" target="KQfbLQ1ahkUomKawKFf_-36">
          <mxGeometry relative="1" as="geometry">
            <mxPoint x="3890" y="4240" as="sourcePoint" />
            <mxPoint x="3980" y="4150" as="targetPoint" />
          </mxGeometry>
        </mxCell>
        <mxCell id="KQfbLQ1ahkUomKawKFf_-202" value="N" style="resizable=0;html=1;whiteSpace=wrap;align=right;verticalAlign=bottom;" connectable="0" vertex="1" parent="KQfbLQ1ahkUomKawKFf_-201">
          <mxGeometry x="1" relative="1" as="geometry" />
        </mxCell>
        <mxCell id="KQfbLQ1ahkUomKawKFf_-203" value="" style="endArrow=none;html=1;rounded=0;entryX=0.5;entryY=0;entryDx=0;entryDy=0;exitX=0.25;exitY=1;exitDx=0;exitDy=0;" edge="1" parent="1" source="KQfbLQ1ahkUomKawKFf_-35" target="KQfbLQ1ahkUomKawKFf_-36">
          <mxGeometry relative="1" as="geometry">
            <mxPoint x="4050" y="4230" as="sourcePoint" />
            <mxPoint x="4210" y="4230" as="targetPoint" />
          </mxGeometry>
        </mxCell>
        <mxCell id="KQfbLQ1ahkUomKawKFf_-204" value="N" style="resizable=0;html=1;whiteSpace=wrap;align=right;verticalAlign=bottom;" connectable="0" vertex="1" parent="KQfbLQ1ahkUomKawKFf_-203">
          <mxGeometry x="1" relative="1" as="geometry" />
        </mxCell>
        <mxCell id="KQfbLQ1ahkUomKawKFf_-205" value="" style="endArrow=none;html=1;rounded=0;entryX=0;entryY=0.5;entryDx=0;entryDy=0;exitX=1;exitY=0.5;exitDx=0;exitDy=0;" edge="1" parent="1" source="KQfbLQ1ahkUomKawKFf_-35" target="KQfbLQ1ahkUomKawKFf_-112">
          <mxGeometry relative="1" as="geometry">
            <mxPoint x="4490" y="4130" as="sourcePoint" />
            <mxPoint x="4650" y="4130" as="targetPoint" />
          </mxGeometry>
        </mxCell>
        <mxCell id="KQfbLQ1ahkUomKawKFf_-206" value="N" style="resizable=0;html=1;whiteSpace=wrap;align=right;verticalAlign=bottom;" connectable="0" vertex="1" parent="KQfbLQ1ahkUomKawKFf_-205">
          <mxGeometry x="1" relative="1" as="geometry" />
        </mxCell>
        <mxCell id="KQfbLQ1ahkUomKawKFf_-207" value="" style="endArrow=none;html=1;rounded=0;entryX=0.5;entryY=1;entryDx=0;entryDy=0;exitX=0.25;exitY=0;exitDx=0;exitDy=0;" edge="1" parent="1" source="KQfbLQ1ahkUomKawKFf_-105" target="KQfbLQ1ahkUomKawKFf_-112">
          <mxGeometry relative="1" as="geometry">
            <mxPoint x="4900" y="4240" as="sourcePoint" />
            <mxPoint x="5060" y="4240" as="targetPoint" />
          </mxGeometry>
        </mxCell>
        <mxCell id="KQfbLQ1ahkUomKawKFf_-208" value="N" style="resizable=0;html=1;whiteSpace=wrap;align=right;verticalAlign=bottom;" connectable="0" vertex="1" parent="KQfbLQ1ahkUomKawKFf_-207">
          <mxGeometry x="1" relative="1" as="geometry" />
        </mxCell>
        <mxCell id="KQfbLQ1ahkUomKawKFf_-209" value="" style="endArrow=none;html=1;rounded=0;exitX=1;exitY=0.5;exitDx=0;exitDy=0;entryX=0;entryY=0.5;entryDx=0;entryDy=0;" edge="1" parent="1" source="KQfbLQ1ahkUomKawKFf_-47" target="KQfbLQ1ahkUomKawKFf_-55">
          <mxGeometry relative="1" as="geometry">
            <mxPoint x="3670" y="3890" as="sourcePoint" />
            <mxPoint x="3830" y="3890" as="targetPoint" />
          </mxGeometry>
        </mxCell>
        <mxCell id="KQfbLQ1ahkUomKawKFf_-210" value="N" style="resizable=0;html=1;whiteSpace=wrap;align=right;verticalAlign=bottom;" connectable="0" vertex="1" parent="KQfbLQ1ahkUomKawKFf_-209">
          <mxGeometry x="1" relative="1" as="geometry" />
        </mxCell>
        <mxCell id="KQfbLQ1ahkUomKawKFf_-211" value="" style="endArrow=none;html=1;rounded=0;entryX=1;entryY=0.5;entryDx=0;entryDy=0;exitX=0;exitY=0.5;exitDx=0;exitDy=0;" edge="1" parent="1" source="KQfbLQ1ahkUomKawKFf_-35" target="KQfbLQ1ahkUomKawKFf_-55">
          <mxGeometry relative="1" as="geometry">
            <mxPoint x="3990" y="4010" as="sourcePoint" />
            <mxPoint x="4150" y="4010" as="targetPoint" />
          </mxGeometry>
        </mxCell>
        <mxCell id="KQfbLQ1ahkUomKawKFf_-212" value="1" style="resizable=0;html=1;whiteSpace=wrap;align=right;verticalAlign=bottom;" connectable="0" vertex="1" parent="KQfbLQ1ahkUomKawKFf_-211">
          <mxGeometry x="1" relative="1" as="geometry" />
        </mxCell>
        <mxCell id="KQfbLQ1ahkUomKawKFf_-213" value="" style="endArrow=none;html=1;rounded=0;exitX=1;exitY=0.75;exitDx=0;exitDy=0;entryX=0.5;entryY=0;entryDx=0;entryDy=0;" edge="1" parent="1" source="KQfbLQ1ahkUomKawKFf_-35" target="KQfbLQ1ahkUomKawKFf_-37">
          <mxGeometry relative="1" as="geometry">
            <mxPoint x="4250" y="4220" as="sourcePoint" />
            <mxPoint x="4410" y="4220" as="targetPoint" />
            <Array as="points">
              <mxPoint x="4960" y="3850" />
            </Array>
          </mxGeometry>
        </mxCell>
        <mxCell id="KQfbLQ1ahkUomKawKFf_-214" value="N" style="resizable=0;html=1;whiteSpace=wrap;align=right;verticalAlign=bottom;" connectable="0" vertex="1" parent="KQfbLQ1ahkUomKawKFf_-213">
          <mxGeometry x="1" relative="1" as="geometry" />
        </mxCell>
        <mxCell id="KQfbLQ1ahkUomKawKFf_-215" value="" style="endArrow=none;html=1;rounded=0;exitX=0.5;exitY=0;exitDx=0;exitDy=0;entryX=0;entryY=0.5;entryDx=0;entryDy=0;" edge="1" parent="1" source="KQfbLQ1ahkUomKawKFf_-27" target="KQfbLQ1ahkUomKawKFf_-37">
          <mxGeometry relative="1" as="geometry">
            <mxPoint x="4480" y="4350" as="sourcePoint" />
            <mxPoint x="4890" y="4070" as="targetPoint" />
            <Array as="points">
              <mxPoint x="4660" y="4070" />
            </Array>
          </mxGeometry>
        </mxCell>
        <mxCell id="KQfbLQ1ahkUomKawKFf_-216" value="N" style="resizable=0;html=1;whiteSpace=wrap;align=right;verticalAlign=bottom;" connectable="0" vertex="1" parent="KQfbLQ1ahkUomKawKFf_-215">
          <mxGeometry x="1" relative="1" as="geometry" />
        </mxCell>
        <mxCell id="KQfbLQ1ahkUomKawKFf_-217" value="" style="endArrow=none;html=1;rounded=0;exitX=0.75;exitY=1;exitDx=0;exitDy=0;entryX=0.5;entryY=0;entryDx=0;entryDy=0;" edge="1" parent="1" source="KQfbLQ1ahkUomKawKFf_-21" target="KQfbLQ1ahkUomKawKFf_-20">
          <mxGeometry relative="1" as="geometry">
            <mxPoint x="3910" y="4440" as="sourcePoint" />
            <mxPoint x="4070" y="4440" as="targetPoint" />
          </mxGeometry>
        </mxCell>
        <mxCell id="KQfbLQ1ahkUomKawKFf_-218" value="N" style="resizable=0;html=1;whiteSpace=wrap;align=right;verticalAlign=bottom;" connectable="0" vertex="1" parent="KQfbLQ1ahkUomKawKFf_-217">
          <mxGeometry x="1" relative="1" as="geometry" />
        </mxCell>
        <mxCell id="KQfbLQ1ahkUomKawKFf_-219" value="" style="endArrow=none;html=1;rounded=0;entryX=1;entryY=0.5;entryDx=0;entryDy=0;exitX=0;exitY=0.5;exitDx=0;exitDy=0;" edge="1" parent="1" source="KQfbLQ1ahkUomKawKFf_-22" target="KQfbLQ1ahkUomKawKFf_-20">
          <mxGeometry relative="1" as="geometry">
            <mxPoint x="4040" y="4680" as="sourcePoint" />
            <mxPoint x="4200" y="4680" as="targetPoint" />
          </mxGeometry>
        </mxCell>
        <mxCell id="KQfbLQ1ahkUomKawKFf_-220" value="1" style="resizable=0;html=1;whiteSpace=wrap;align=right;verticalAlign=bottom;" connectable="0" vertex="1" parent="KQfbLQ1ahkUomKawKFf_-219">
          <mxGeometry x="1" relative="1" as="geometry" />
        </mxCell>
        <mxCell id="KQfbLQ1ahkUomKawKFf_-221" value="" style="endArrow=none;html=1;rounded=0;entryX=1;entryY=0.5;entryDx=0;entryDy=0;exitX=0.69;exitY=0;exitDx=0;exitDy=0;exitPerimeter=0;" edge="1" parent="1" source="KQfbLQ1ahkUomKawKFf_-105" target="KQfbLQ1ahkUomKawKFf_-117">
          <mxGeometry relative="1" as="geometry">
            <mxPoint x="5160" y="4280" as="sourcePoint" />
            <mxPoint x="4720" y="5260" as="targetPoint" />
            <Array as="points">
              <mxPoint x="5150" y="4140" />
              <mxPoint x="5680" y="4140" />
              <mxPoint x="5680" y="4720" />
              <mxPoint x="5680" y="5320" />
            </Array>
          </mxGeometry>
        </mxCell>
        <mxCell id="KQfbLQ1ahkUomKawKFf_-222" value="1" style="resizable=0;html=1;whiteSpace=wrap;align=right;verticalAlign=bottom;" connectable="0" vertex="1" parent="KQfbLQ1ahkUomKawKFf_-221">
          <mxGeometry x="1" relative="1" as="geometry" />
        </mxCell>
        <mxCell id="KQfbLQ1ahkUomKawKFf_-223" value="" style="endArrow=none;html=1;rounded=0;entryX=0;entryY=0.5;entryDx=0;entryDy=0;exitX=0;exitY=0.75;exitDx=0;exitDy=0;" edge="1" parent="1" source="KQfbLQ1ahkUomKawKFf_-21" target="KQfbLQ1ahkUomKawKFf_-90">
          <mxGeometry relative="1" as="geometry">
            <mxPoint x="3530" y="4470" as="sourcePoint" />
            <mxPoint x="3010" y="5260" as="targetPoint" />
            <Array as="points">
              <mxPoint x="3200" y="4370" />
              <mxPoint x="3200" y="4500" />
              <mxPoint x="3200" y="4680" />
              <mxPoint x="3200" y="4920" />
              <mxPoint x="3200" y="5080" />
              <mxPoint x="3200" y="5340" />
              <mxPoint x="3200" y="5480" />
            </Array>
          </mxGeometry>
        </mxCell>
        <mxCell id="KQfbLQ1ahkUomKawKFf_-224" value="N" style="resizable=0;html=1;whiteSpace=wrap;align=right;verticalAlign=bottom;" connectable="0" vertex="1" parent="KQfbLQ1ahkUomKawKFf_-223">
          <mxGeometry x="1" relative="1" as="geometry" />
        </mxCell>
        <mxCell id="KQfbLQ1ahkUomKawKFf_-225" value="" style="endArrow=none;html=1;rounded=0;entryX=1;entryY=0.5;entryDx=0;entryDy=0;exitX=0;exitY=0.5;exitDx=0;exitDy=0;" edge="1" parent="1" source="KQfbLQ1ahkUomKawKFf_-89" target="KQfbLQ1ahkUomKawKFf_-90">
          <mxGeometry relative="1" as="geometry">
            <mxPoint x="5030" y="5590" as="sourcePoint" />
            <mxPoint x="4710" y="5600" as="targetPoint" />
          </mxGeometry>
        </mxCell>
        <mxCell id="KQfbLQ1ahkUomKawKFf_-226" value="1" style="resizable=0;html=1;whiteSpace=wrap;align=right;verticalAlign=bottom;" connectable="0" vertex="1" parent="KQfbLQ1ahkUomKawKFf_-225">
          <mxGeometry x="1" relative="1" as="geometry" />
        </mxCell>
        <mxCell id="KQfbLQ1ahkUomKawKFf_-229" value="" style="endArrow=none;html=1;rounded=0;exitX=0.5;exitY=0;exitDx=0;exitDy=0;entryX=0.5;entryY=1;entryDx=0;entryDy=0;" edge="1" parent="1" source="KQfbLQ1ahkUomKawKFf_-83" target="KQfbLQ1ahkUomKawKFf_-82">
          <mxGeometry relative="1" as="geometry">
            <mxPoint x="3270" y="4230" as="sourcePoint" />
            <mxPoint x="3430" y="4230" as="targetPoint" />
          </mxGeometry>
        </mxCell>
        <mxCell id="KQfbLQ1ahkUomKawKFf_-230" value="N" style="resizable=0;html=1;whiteSpace=wrap;align=right;verticalAlign=bottom;" connectable="0" vertex="1" parent="KQfbLQ1ahkUomKawKFf_-229">
          <mxGeometry x="1" relative="1" as="geometry" />
        </mxCell>
        <mxCell id="KQfbLQ1ahkUomKawKFf_-231" value="" style="endArrow=none;html=1;rounded=0;entryX=0.5;entryY=0;entryDx=0;entryDy=0;exitX=0;exitY=0.25;exitDx=0;exitDy=0;" edge="1" parent="1" source="KQfbLQ1ahkUomKawKFf_-21" target="KQfbLQ1ahkUomKawKFf_-82">
          <mxGeometry relative="1" as="geometry">
            <mxPoint x="3450" y="4310" as="sourcePoint" />
            <mxPoint x="3610" y="4310" as="targetPoint" />
            <Array as="points">
              <mxPoint x="2500" y="4340" />
            </Array>
          </mxGeometry>
        </mxCell>
        <mxCell id="KQfbLQ1ahkUomKawKFf_-232" value="N" style="resizable=0;html=1;whiteSpace=wrap;align=right;verticalAlign=bottom;" connectable="0" vertex="1" parent="KQfbLQ1ahkUomKawKFf_-231">
          <mxGeometry x="1" relative="1" as="geometry" />
        </mxCell>
        <mxCell id="KQfbLQ1ahkUomKawKFf_-233" value="" style="endArrow=none;html=1;rounded=0;entryX=0.5;entryY=0;entryDx=0;entryDy=0;exitX=0.5;exitY=1;exitDx=0;exitDy=0;" edge="1" parent="1" source="KQfbLQ1ahkUomKawKFf_-85" target="KQfbLQ1ahkUomKawKFf_-86">
          <mxGeometry relative="1" as="geometry">
            <mxPoint x="2800" y="4470" as="sourcePoint" />
            <mxPoint x="3380" y="4460" as="targetPoint" />
          </mxGeometry>
        </mxCell>
        <mxCell id="KQfbLQ1ahkUomKawKFf_-234" value="N" style="resizable=0;html=1;whiteSpace=wrap;align=right;verticalAlign=bottom;" connectable="0" vertex="1" parent="KQfbLQ1ahkUomKawKFf_-233">
          <mxGeometry x="1" relative="1" as="geometry" />
        </mxCell>
        <mxCell id="KQfbLQ1ahkUomKawKFf_-235" value="" style="endArrow=none;html=1;rounded=0;entryX=0.5;entryY=0;entryDx=0;entryDy=0;exitX=0;exitY=0.5;exitDx=0;exitDy=0;" edge="1" parent="1" source="KQfbLQ1ahkUomKawKFf_-21" target="KQfbLQ1ahkUomKawKFf_-85">
          <mxGeometry relative="1" as="geometry">
            <mxPoint x="3320" y="4420" as="sourcePoint" />
            <mxPoint x="3480" y="4420" as="targetPoint" />
            <Array as="points">
              <mxPoint x="2800" y="4360" />
            </Array>
          </mxGeometry>
        </mxCell>
        <mxCell id="KQfbLQ1ahkUomKawKFf_-236" value="1" style="resizable=0;html=1;whiteSpace=wrap;align=right;verticalAlign=bottom;" connectable="0" vertex="1" parent="KQfbLQ1ahkUomKawKFf_-235">
          <mxGeometry x="1" relative="1" as="geometry" />
        </mxCell>
      </root>
    </mxGraphModel>
  </diagram>
</mxfile>
